<svg width="444" height="75" viewBox="0 0 444 75" fill="none" xmlns="http://www.w3.org/2000/svg">
<path d="M0.957031 74V71.4609H10.332V6.51953H0.957031V3.98047H29.8633V6.51953H20.4883V37.0371L25.4688 34.7422L48.4668 6.51953H37.1387V3.98047H61.7969V6.51953H51.8848L33.1836 29.4688L63.3105 71.4609H71.8555V74H38.6035V71.4609H50.3223L26.0059 37.5742L20.4883 40.1133V71.4609H29.8633V74H0.957031ZM68.9844 74V71.4609H78.3594V6.51953H68.9844V3.98047H97.8906V6.51953H88.5156V36.0117H116.641V6.51953H107.266V3.98047H136.172V6.51953H126.797V71.4609H136.172V74H107.266V71.4609H116.641V38.5508H88.5156V71.4609H97.8906V74H68.9844ZM136.133 74V71.4609H145.508V6.51953H136.133V3.98047H165.039V6.51953H155.664V71.4609H165.039V74H136.133ZM164.512 74V71.4609H173.887V6.51953H164.512V3.98047H194.004C197.715 3.98047 201.003 4.46875 203.867 5.44531C206.732 6.42188 208.978 7.75651 210.605 9.44922C212.233 11.1094 213.454 12.9323 214.268 14.918C215.081 16.8711 215.488 18.9382 215.488 21.1191C215.488 25.3509 214.251 28.7526 211.777 31.3242C209.303 33.8633 205.918 35.6211 201.621 36.5977V37.1836C206.602 37.9648 210.394 39.7064 212.998 42.4082C215.635 45.11 216.953 48.2513 216.953 51.832V62.4766C216.953 65.8945 217.507 68.3197 218.613 69.752C219.753 71.1517 221.657 71.8516 224.326 71.8516C226.182 71.8516 228.118 71.4772 230.137 70.7285L230.723 73.1699C227.467 74.2441 224.066 74.7812 220.518 74.7812C218.923 74.7812 217.393 74.5859 215.928 74.1953C214.463 73.8372 212.998 73.235 211.533 72.3887C210.101 71.5423 208.945 70.2728 208.066 68.5801C207.22 66.8874 206.797 64.8691 206.797 62.5254V51.0996C206.797 47.4212 205.804 44.3288 203.818 41.8223C201.865 39.3158 198.919 38.0625 194.98 38.0625H184.043V71.4609H193.418V74H164.512ZM184.043 35.5234H196.543C198.301 35.5234 199.766 35.1816 200.938 34.498C202.142 33.8145 203.053 32.8379 203.672 31.5684C204.29 30.2663 204.714 28.8665 204.941 27.3691C205.202 25.8392 205.332 24.0488 205.332 21.998C205.332 20.0775 205.104 18.2383 204.648 16.4805C204.225 14.7227 203.558 13.0788 202.646 11.5488C201.768 10.0189 200.514 8.79818 198.887 7.88672C197.259 6.97526 195.371 6.51953 193.223 6.51953H184.043V35.5234ZM225.117 74V71.6562H232.051V3.29688H225.117V0.953125H240.059V49.7812H244.16L257.637 33.1797H250.508V30.8359H267.793V33.1797H260.762L250.654 45.7285L269.062 71.6562H275.215V74H250.996V71.6562H259.053L245.43 52.125H240.059V71.6562H246.992V74H225.117ZM271.562 74V71.6562H278.496V3.29688H271.562V0.953125H286.504V41.0898L287.09 41.2363C288.652 37.5905 290.736 34.8236 293.34 32.9355C295.977 31.015 298.971 30.0547 302.324 30.0547C306.361 30.0547 309.502 31.4382 311.748 34.2051C313.799 36.7441 314.824 40.1133 314.824 44.3125V71.6562H321.758V74H299.883V71.6562H306.816V42.5547C306.816 36.5651 304.147 33.5703 298.809 33.5703C296.725 33.5703 294.87 34.2702 293.242 35.6699C291.615 37.0697 290.28 38.8275 289.238 40.9434C288.164 43.0918 287.432 45.11 287.041 46.998C286.683 48.8861 286.504 51.181 286.504 53.8828V71.6562H293.438V74H271.562ZM320.156 64.5762C320.156 60.6699 321.214 57.7565 323.33 55.8359C325.479 53.9154 328.506 52.7109 332.412 52.2227C334.951 51.8971 337.1 51.4089 338.857 50.7578C340.615 50.0742 342.422 49.1302 344.277 47.9258V42.75C344.277 41.5456 344.147 40.39 343.887 39.2832C343.626 38.1764 343.187 37.0859 342.568 36.0117C341.982 34.9049 341.087 34.026 339.883 33.375C338.678 32.724 337.23 32.3984 335.537 32.3984C333.584 32.3984 331.859 32.8216 330.361 33.668C328.864 34.5143 328.115 35.6048 328.115 36.9395C328.115 37.623 328.343 38.4857 328.799 39.5273C329.287 40.569 329.531 41.5781 329.531 42.5547C329.531 43.4987 329.173 44.3288 328.457 45.0449C327.773 45.7285 326.748 46.0703 325.381 46.0703C323.818 46.0703 322.646 45.6634 321.865 44.8496C321.117 44.0033 320.742 42.8802 320.742 41.4805C320.742 38.5182 322.223 35.8815 325.186 33.5703C328.18 31.2266 331.777 30.0547 335.977 30.0547C341.641 30.0547 345.775 31.5684 348.379 34.5957C350.983 37.5905 352.285 41.5781 352.285 46.5586V66.2363C352.285 68.222 352.741 69.6706 353.652 70.582C354.596 71.4935 355.768 71.9492 357.168 71.9492C358.145 71.9492 359.186 71.8353 360.293 71.6074L360.684 74.0977C359.121 74.5534 357.738 74.7812 356.533 74.7812C353.408 74.7812 350.885 74.2604 348.965 73.2188C347.044 72.1445 345.645 70.11 344.766 67.1152H344.375C342.78 69.5241 341.006 71.4121 339.053 72.7793C337.1 74.1139 334.609 74.7812 331.582 74.7812C328.164 74.7812 325.397 73.8698 323.281 72.0469C321.198 70.224 320.156 67.7337 320.156 64.5762ZM328.652 63.7949C328.652 68.7754 330.964 71.2656 335.586 71.2656C337.279 71.2656 338.874 70.6146 340.371 69.3125C341.868 68.0104 343.171 66.3503 344.277 64.332V50.2207C342.715 51.2298 341.234 51.9948 339.834 52.5156C338.467 53.0039 336.449 53.5898 333.779 54.2734C330.361 55.1523 328.652 58.3262 328.652 63.7949ZM356.836 74V71.6562H363.77V3.29688H356.836V0.953125H371.777V71.6562H378.711V74H356.836ZM376.133 74V71.6562H383.066V33.1797H376.133V30.8359H391.074V71.6562H398.008V74H376.133ZM382.871 11.9883C381.699 10.8164 381.113 9.38411 381.113 7.69141C381.113 5.9987 381.699 4.56641 382.871 3.39453C384.043 2.22266 385.475 1.63672 387.168 1.63672C388.861 1.63672 390.293 2.22266 391.465 3.39453C392.637 4.56641 393.223 5.9987 393.223 7.69141C393.223 9.38411 392.637 10.8164 391.465 11.9883C390.293 13.1602 388.861 13.7461 387.168 13.7461C385.475 13.7461 384.043 13.1602 382.871 11.9883ZM398.408 64.5273C396.813 61.1094 396.016 57.0729 396.016 52.418C396.016 47.763 396.813 43.7266 398.408 40.3086C400.036 36.8906 402.298 34.2865 405.195 32.4961C407.832 30.8685 410.778 30.0547 414.033 30.0547C419.925 30.0547 424.596 32.9844 428.047 38.8438L428.73 38.7461V3.29688H418.672V0.953125H436.738V71.6562H443.672V74H428.73V66.0898L428.047 65.9922C424.596 71.8516 419.925 74.7812 414.033 74.7812C410.778 74.7812 407.832 73.9674 405.195 72.3398C402.298 70.5495 400.036 67.9453 398.408 64.5273ZM406.074 42.6035C405.358 45.403 405 48.6745 405 52.418C405 56.1615 405.358 59.4329 406.074 62.2324C406.823 65.0319 408.092 67.3431 409.883 69.166C411.706 70.9564 413.984 71.8516 416.719 71.8516C419.844 71.8516 422.627 70.0449 425.068 66.4316C427.51 62.7858 428.73 58.1146 428.73 52.418C428.73 46.7214 427.51 42.0664 425.068 38.4531C422.627 34.8073 419.844 32.9844 416.719 32.9844C413.984 32.9844 411.706 33.8958 409.883 35.7188C408.092 37.5091 406.823 39.804 406.074 42.6035Z" fill="black"/>
</svg>
